@startuml doc-files/ipc05_01_classDiagram.png

class ConfigurationManager
class ConnectionManager extends Observable implements Observer

class ConnectionManager{
     -UdpClient udpClient
     -UdpServer udpServer
     -TcpServer tcpServer
     -ConfigurationManager cfgManager

    + {static} synchronized ConnectionManager getInstance()
    
}

enum MessageType
class Message implements Serializable{
    - final MessageType messageType;

    - final Object content;
    
    - InetAddress address;
}


class ChatMessage implements Serializable{
    - final int id;
    - final String text;
    - final int parentId;
}

class TcpServer implements Runnable

class TcpServerConnection extends Observable implements Runnable

class TcpClientConnection

class UdpClient extends Observable implements Runnable

class SendChatMessageController implements Observer, Serializable

class SendChatMessageExtension extends Extension

class SendChatMessagePanel extends javax.swing.JPanel


ConnectionManager *-- TcpServer
ConnectionManager *-- UdpServer
ConnectionManager *-- UdpClient
ConnectionManager *-- TcpClientConnection
ConnectionManager *-- ConfigurationManager

TcpServer o-- TcpClientConnection

SendChatMessageController *-- ConnectionManager
SendChatMessagePanel *-- SendChatMessageController


Message o-- MessageType



@enduml
